<?xml version="1.0" encoding="utf-8"?>
<!-- Generator: Adobe Illustrator 16.0.0, SVG Export Plug-In . SVG Version: 6.00 Build 0)  -->
<!DOCTYPE svg PUBLIC "-//W3C//DTD SVG 1.1//EN" "http://www.w3.org/Graphics/SVG/1.1/DTD/svg11.dtd">
<svg version="1.1" xmlns="http://www.w3.org/2000/svg" xmlns:xlink="http://www.w3.org/1999/xlink" x="0px" y="0px" width="1152px"
	 height="648px" viewBox="0 0 1152 648" enable-background="new 0 0 1152 648" xml:space="preserve">
<g id="Layer_2">
</g>
<g id="Layer_1">
	<g>
		<defs>
			<rect id="SVGID_1_" y="144.1" width="1152" height="505.976"/>
		</defs>
		<clipPath id="SVGID_2_">
			<use xlink:href="#SVGID_1_"  overflow="visible"/>
		</clipPath>
		<g clip-path="url(#SVGID_2_)">
			<defs>
				<rect id="SVGID_3_" x="-2.942" y="41" width="1154.942" height="609.076"/>
			</defs>
			<clipPath id="SVGID_4_">
				<use xlink:href="#SVGID_3_"  overflow="visible"/>
			</clipPath>
			<g id="city" clip-path="url(#SVGID_4_)">
				<g>
					<rect x="1054.838" y="188.498" fill="#005867" width="94.636" height="20.927"/>
					<rect x="1040.58" y="188.498" fill="#004854" width="16.524" height="20.927"/>
					<rect x="1060.936" y="180.193" fill="#2B8FA7" width="80.275" height="8.304"/>
					<rect x="1048.843" y="180.193" fill="#006D81" width="14.017" height="8.304"/>
					<rect x="1032.152" y="209.425" fill="#006D81" width="34.184" height="295.452"/>
					<rect x="1066.336" y="209.425" fill="#2B8FA7" width="88.903" height="295.452"/>
					<rect x="1076.881" y="220.315" fill="#72B7C5" width="68.73" height="9.794"/>
					<rect x="1076.881" y="234.735" fill="#72B7C5" width="68.73" height="9.794"/>
					<rect x="1076.881" y="249.154" fill="#72B7C5" width="68.73" height="9.795"/>
					<rect x="1076.881" y="263.575" fill="#72B7C5" width="68.73" height="9.793"/>
					<rect x="1076.881" y="277.994" fill="#72B7C5" width="68.73" height="9.794"/>
					<rect x="1076.881" y="292.414" fill="#72B7C5" width="68.73" height="9.795"/>
					<rect x="1076.881" y="306.833" fill="#72B7C5" width="68.73" height="9.795"/>
					<rect x="1076.881" y="323.012" fill="#72B7C5" width="68.73" height="9.793"/>
					<rect x="1076.881" y="337.431" fill="#72B7C5" width="68.73" height="9.795"/>
					<rect x="1076.881" y="351.852" fill="#72B7C5" width="68.73" height="9.794"/>
					<rect x="1076.881" y="366.271" fill="#72B7C5" width="68.73" height="9.795"/>
					<rect x="1076.881" y="380.689" fill="#72B7C5" width="68.73" height="9.797"/>
					<rect x="1076.881" y="395.11" fill="#72B7C5" width="68.73" height="9.795"/>
					<rect x="1076.881" y="409.531" fill="#72B7C5" width="68.73" height="9.794"/>
					<rect x="1076.881" y="426.461" fill="#72B7C5" width="68.73" height="9.798"/>
					<rect x="1076.881" y="440.884" fill="#72B7C5" width="68.73" height="9.793"/>
					<rect x="1076.881" y="455.303" fill="#72B7C5" width="68.73" height="9.795"/>
					<rect x="1076.881" y="469.724" fill="#72B7C5" width="68.73" height="9.792"/>
					<rect x="1076.881" y="484.144" fill="#006D81" width="68.73" height="20.733"/>
				</g>
				<g>
					<rect x="966.15" y="277.856" fill="#04456A" width="21.408" height="227.021"/>
					<rect x="987.559" y="277.856" fill="#0A5683" width="55.676" height="227.021"/>
					<g>
						<rect x="994.883" y="288.002" fill="#00B3D3" width="41.028" height="23.916"/>
						<rect x="994.883" y="306.754" fill="#04456A" width="41.028" height="7.339"/>
					</g>
					<g>
						<g>
							<rect x="994.883" y="478.787" fill="#00B3D3" width="41.028" height="23.917"/>
							<rect x="994.883" y="497.539" fill="#04456A" width="41.028" height="7.338"/>
						</g>
					</g>
					<g>
						<polygon fill="#00B3D3" points="1035.747,267.349 981.888,258.65 981.888,277.856 1035.747,277.856 						"/>
						<polygon fill="#0097B3" points="981.888,258.65 973.64,267.349 973.64,277.856 981.888,277.856 						"/>
					</g>
					<g>
						<rect x="994.883" y="319.8" fill="#00B3D3" width="41.028" height="23.914"/>
						<rect x="994.883" y="338.553" fill="#04456A" width="41.028" height="7.338"/>
					</g>
					<g>
						<rect x="994.883" y="351.597" fill="#00B3D3" width="41.028" height="23.916"/>
						<rect x="994.883" y="370.349" fill="#04456A" width="41.028" height="7.339"/>
					</g>
					<g>
						<rect x="994.883" y="383.394" fill="#00B3D3" width="41.028" height="23.918"/>
						<rect x="994.883" y="402.147" fill="#04456A" width="41.028" height="7.338"/>
					</g>
					<g>
						<rect x="994.883" y="415.191" fill="#00B3D3" width="41.028" height="23.916"/>
						<rect x="994.883" y="433.943" fill="#04456A" width="41.028" height="7.339"/>
					</g>
					<g>
						<rect x="994.883" y="446.989" fill="#00B3D3" width="41.028" height="23.916"/>
						<rect x="994.883" y="465.741" fill="#04456A" width="41.028" height="7.337"/>
					</g>
				</g>
				<g>
					<g>
						<rect x="913.734" y="311.931" fill="#E7D9CD" width="18.196" height="192.946"/>
						<rect x="931.931" y="311.931" fill="#EFE3D5" width="47.322" height="192.946"/>
						<g>
							<g>
								<rect x="938.156" y="320.554" fill="#22A6C2" width="9.942" height="20.325"/>
								<rect x="938.156" y="336.49" fill="#0089A8" width="9.942" height="6.237"/>
							</g>
							<g>
								<rect x="950.618" y="320.554" fill="#22A6C2" width="9.944" height="20.325"/>
								<rect x="950.618" y="336.49" fill="#0089A8" width="9.944" height="6.237"/>
							</g>
							<g>
								<rect x="963.085" y="320.554" fill="#22A6C2" width="9.941" height="20.325"/>
								<rect x="963.085" y="336.49" fill="#0089A8" width="9.941" height="6.237"/>
							</g>
						</g>
						<g>
							<g>
								<rect x="938.156" y="347.578" fill="#22A6C2" width="9.942" height="20.325"/>
								<rect x="938.156" y="363.517" fill="#0089A8" width="9.942" height="6.236"/>
							</g>
							<g>
								<rect x="950.618" y="347.578" fill="#22A6C2" width="9.944" height="20.325"/>
								<rect x="950.618" y="363.517" fill="#0089A8" width="9.944" height="6.236"/>
							</g>
							<g>
								<rect x="963.085" y="347.578" fill="#22A6C2" width="9.941" height="20.325"/>
								<rect x="963.085" y="363.517" fill="#0089A8" width="9.941" height="6.236"/>
							</g>
						</g>
						<g>
							<g>
								<rect x="938.156" y="374.604" fill="#22A6C2" width="9.942" height="20.326"/>
								<rect x="938.156" y="390.541" fill="#0089A8" width="9.942" height="6.235"/>
							</g>
							<g>
								<rect x="950.618" y="374.604" fill="#22A6C2" width="9.944" height="20.326"/>
								<rect x="950.618" y="390.541" fill="#0089A8" width="9.944" height="6.235"/>
							</g>
							<g>
								<rect x="963.085" y="374.604" fill="#22A6C2" width="9.941" height="20.326"/>
								<rect x="963.085" y="390.541" fill="#0089A8" width="9.941" height="6.235"/>
							</g>
						</g>
						<g>
							<g>
								<rect x="938.156" y="401.628" fill="#22A6C2" width="9.942" height="20.328"/>
								<rect x="938.156" y="417.566" fill="#0089A8" width="9.942" height="6.237"/>
							</g>
							<g>
								<rect x="950.618" y="401.628" fill="#22A6C2" width="9.944" height="20.328"/>
								<rect x="950.618" y="417.566" fill="#0089A8" width="9.944" height="6.237"/>
							</g>
							<g>
								<rect x="963.085" y="401.628" fill="#22A6C2" width="9.941" height="20.328"/>
								<rect x="963.085" y="417.566" fill="#0089A8" width="9.941" height="6.237"/>
							</g>
						</g>
						<g>
							<g>
								<rect x="938.156" y="428.653" fill="#22A6C2" width="9.942" height="20.326"/>
								<rect x="938.156" y="444.591" fill="#0089A8" width="9.942" height="6.236"/>
							</g>
							<g>
								<rect x="950.618" y="428.653" fill="#22A6C2" width="9.944" height="20.326"/>
								<rect x="950.618" y="444.591" fill="#0089A8" width="9.944" height="6.236"/>
							</g>
							<g>
								<rect x="963.085" y="428.653" fill="#22A6C2" width="9.941" height="20.326"/>
								<rect x="963.085" y="444.591" fill="#0089A8" width="9.941" height="6.236"/>
							</g>
						</g>
						<g>
							<g>
								<rect x="938.156" y="455.678" fill="#22A6C2" width="9.942" height="20.327"/>
								<rect x="938.156" y="471.615" fill="#0089A8" width="9.942" height="6.237"/>
							</g>
							<g>
								<rect x="950.618" y="455.678" fill="#22A6C2" width="9.944" height="20.327"/>
								<rect x="950.618" y="471.615" fill="#0089A8" width="9.944" height="6.237"/>
							</g>
							<g>
								<rect x="963.085" y="455.678" fill="#22A6C2" width="9.941" height="20.327"/>
								<rect x="963.085" y="471.615" fill="#0089A8" width="9.941" height="6.237"/>
							</g>
						</g>
						<g>
							<g>
								<rect x="938.156" y="482.702" fill="#22A6C2" width="34.87" height="20.328"/>
								<rect x="938.156" y="498.641" fill="#0089A8" width="34.87" height="6.236"/>
							</g>
						</g>
					</g>
					<g>
						<rect x="927.111" y="302.998" fill="#EAD9C3" width="45.773" height="8.933"/>
						<rect x="920.1" y="302.998" fill="#DFCAB3" width="7.539" height="8.933"/>
					</g>
				</g>
				<g>
					<rect x="1031.273" y="357.887" fill="#6588C1" width="101.729" height="146.99"/>
					<rect x="1014.887" y="357.887" fill="#4673AE" width="16.387" height="146.99"/>
					<g>
						<rect x="1036.316" y="366.521" fill="#4A4D7F" width="91.641" height="11.605"/>
						<rect x="1036.316" y="383.606" fill="#4A4D7F" width="91.641" height="11.603"/>
						<rect x="1036.316" y="400.69" fill="#4A4D7F" width="91.641" height="11.604"/>
						<rect x="1036.316" y="417.775" fill="#4A4D7F" width="91.641" height="11.604"/>
						<rect x="1036.316" y="434.858" fill="#4A4D7F" width="91.641" height="11.605"/>
						<rect x="1036.316" y="451.943" fill="#4A4D7F" width="91.641" height="11.604"/>
						<rect x="1036.316" y="469.027" fill="#4A4D7F" width="91.641" height="11.606"/>
					</g>
					<rect x="1053.292" y="486.52" fill="#2B3162" width="57.69" height="18.357"/>
				</g>
			</g>
			<g clip-path="url(#SVGID_4_)">
				<rect x="27.08" y="198.253" fill="#1A7087" width="80.975" height="308.935"/>
				<rect y="198.253" fill="#115167" width="27.08" height="308.935"/>
				<g>
					<rect x="31.836" y="336.999" fill="#43ACC6" width="71.46" height="12.415"/>
					<rect x="31.836" y="355.278" fill="#43ACC6" width="71.46" height="12.416"/>
					<rect x="31.836" y="373.557" fill="#43ACC6" width="71.46" height="12.417"/>
					<rect x="31.836" y="391.835" fill="#43ACC6" width="71.46" height="12.418"/>
					<rect x="31.836" y="410.114" fill="#43ACC6" width="71.46" height="12.416"/>
					<rect x="31.836" y="428.393" fill="#43ACC6" width="71.46" height="12.416"/>
					<rect x="31.836" y="446.671" fill="#43ACC6" width="71.46" height="12.417"/>
					<rect x="31.836" y="464.95" fill="#43ACC6" width="71.46" height="12.417"/>
				</g>
				<g>
					<rect x="31.836" y="208.553" fill="#43ACC6" width="71.46" height="12.417"/>
					<rect x="31.836" y="226.833" fill="#43ACC6" width="71.46" height="12.415"/>
					<rect x="31.836" y="245.111" fill="#43ACC6" width="71.46" height="12.417"/>
					<rect x="31.836" y="263.39" fill="#43ACC6" width="71.46" height="12.417"/>
					<rect x="31.836" y="281.669" fill="#43ACC6" width="71.46" height="12.416"/>
					<rect x="31.836" y="299.948" fill="#43ACC6" width="71.46" height="12.417"/>
					<rect x="31.836" y="318.227" fill="#43ACC6" width="71.46" height="12.417"/>
				</g>
				<rect x="47.844" y="484.607" fill="#115167" width="39.448" height="22.581"/>
			</g>
			<g clip-path="url(#SVGID_4_)">
				<rect x="203.002" y="394.707" fill="#FFE9D9" width="55.242" height="112.481"/>
				<rect x="192.46" y="394.707" fill="#D6B5A0" width="10.542" height="112.481"/>
				<rect x="206.248" y="401.314" fill="#F2D8C6" width="48.751" height="19.096"/>
				<rect x="206.248" y="424.058" fill="#F2D8C6" width="48.751" height="19.094"/>
				<rect x="206.248" y="446.8" fill="#F2D8C6" width="48.751" height="19.094"/>
				<rect x="206.248" y="469.54" fill="#F2D8C6" width="48.751" height="19.097"/>
				<g>
					<rect x="206.248" y="412.686" fill="#D6B5A0" width="48.751" height="7.725"/>
					<rect x="206.248" y="435.429" fill="#D6B5A0" width="48.751" height="7.723"/>
					<rect x="206.248" y="458.17" fill="#D6B5A0" width="48.751" height="7.724"/>
					<rect x="206.248" y="480.913" fill="#D6B5A0" width="48.751" height="7.724"/>
				</g>
				<rect x="217.168" y="493.141" fill="#D6B5A0" width="26.911" height="14.048"/>
			</g>
			<g clip-path="url(#SVGID_4_)">
				<rect x="108.84" y="315.076" fill="#4673AE" width="23.023" height="192.112"/>
				<rect x="131.863" y="315.076" fill="#6588C1" width="59.879" height="192.112"/>
				<g>
					<rect x="116.896" y="281.526" fill="#1D254C" width="8.872" height="15.663"/>
				</g>
				<rect x="139.74" y="323.746" fill="#4A4D7F" width="44.125" height="20.432"/>
				<rect x="139.74" y="486.755" fill="#4A4D7F" width="44.125" height="20.434"/>
				<rect x="125.767" y="281.526" fill="#323765" width="57.921" height="15.663"/>
				<g>
					<rect x="108.84" y="297.188" fill="#323868" width="23.023" height="17.888"/>
				</g>
				<rect x="131.863" y="297.188" fill="#4A4D7F" width="59.879" height="17.888"/>
				<rect x="139.74" y="350.912" fill="#4A4D7F" width="44.125" height="20.436"/>
				<rect x="139.74" y="378.079" fill="#4A4D7F" width="44.125" height="20.435"/>
				<rect x="139.74" y="405.251" fill="#4A4D7F" width="44.125" height="20.435"/>
				<rect x="139.74" y="432.419" fill="#4A4D7F" width="44.125" height="20.434"/>
				<rect x="139.74" y="459.587" fill="#4A4D7F" width="44.125" height="20.435"/>
			</g>
			<g clip-path="url(#SVGID_4_)">
				<defs>
					<rect id="SVGID_5_" x="-2.942" y="414.134" width="1158.734" height="276.752"/>
				</defs>
				<clipPath id="SVGID_6_">
					<use xlink:href="#SVGID_5_"  overflow="visible"/>
				</clipPath>
				<rect x="-1.568" y="505.358" clip-path="url(#SVGID_6_)" fill="#45BDA4" width="1167.076" height="29.428"/>
				<rect x="-1.568" y="631.056" clip-path="url(#SVGID_6_)" fill="#45BDA4" width="1167.076" height="133.356"/>
				<rect x="-1.568" y="525.238" clip-path="url(#SVGID_6_)" fill="#5D666A" width="1167.076" height="105.817"/>
				<g clip-path="url(#SVGID_6_)">
					<g>
						<line fill="none" stroke="#FFFFFF" stroke-width="4" stroke-miterlimit="10" x1="-7.113" y1="577" x2="2.387" y2="577"/>
						
							<line fill="none" stroke="#FFFFFF" stroke-width="4" stroke-miterlimit="10" stroke-dasharray="18.8209,18.8209" x1="21.208" y1="577" x2="1141.053" y2="577"/>
						<line fill="none" stroke="#FFFFFF" stroke-width="4" stroke-miterlimit="10" x1="1150.463" y1="577" x2="1159.963" y2="577"/>
					</g>
				</g>
				<g id="road" clip-path="url(#SVGID_6_)">
					<g>
						<polygon fill="#6D7779" points="-2,615.439 -2,623.122 -2,623.677 -2,631.362 1.469,631.362 1.469,623.677 8.434,623.677 
							8.434,631.362 15.4,631.362 15.4,623.677 22.366,623.677 22.366,631.362 29.33,631.362 29.33,623.677 36.296,623.677 
							36.296,631.362 43.262,631.362 43.262,623.677 50.227,623.677 50.227,631.362 57.194,631.362 57.194,623.677 64.158,623.677 
							64.158,631.362 71.122,631.362 71.122,623.677 78.088,623.677 78.088,631.362 85.054,631.362 85.054,623.677 92.019,623.677 
							92.019,631.362 98.985,631.362 98.985,623.677 105.95,623.677 105.95,631.362 112.915,631.362 112.915,623.677 
							119.879,623.677 119.879,631.362 126.846,631.362 126.846,623.677 133.812,623.677 133.812,631.362 140.777,631.362 
							140.777,623.677 147.741,623.677 147.741,631.362 154.707,631.362 154.707,623.677 161.671,623.677 161.671,631.362 
							168.638,631.362 168.638,623.677 175.603,623.677 175.603,631.362 182.568,631.362 182.568,623.677 189.532,623.677 
							189.532,631.362 196.499,631.362 196.499,623.677 203.464,623.677 203.464,631.362 210.43,631.362 210.43,623.677 
							217.395,623.677 217.395,631.362 224.361,631.362 224.361,623.677 231.325,623.677 231.325,631.362 238.292,631.362 
							238.292,623.677 245.255,623.677 245.255,631.362 252.222,631.362 252.222,623.677 259.187,623.677 259.187,631.362 
							266.153,631.362 266.153,623.677 273.117,623.677 273.117,631.362 280.083,631.362 280.083,623.677 287.048,623.677 
							287.048,631.362 294.014,631.362 294.014,623.677 300.98,623.677 300.98,631.362 307.945,631.362 307.945,623.677 
							314.909,623.677 314.909,631.362 321.875,631.362 321.875,623.677 328.841,623.677 328.841,631.362 335.806,631.362 
							335.806,623.677 342.772,623.677 342.772,631.362 349.736,631.362 349.736,623.677 356.701,623.677 356.701,631.362 
							363.666,631.362 363.666,623.677 370.633,623.677 370.633,631.362 377.598,631.362 377.598,623.677 384.563,623.677 
							384.563,631.362 391.527,631.362 391.527,623.677 398.494,623.677 398.494,631.362 405.458,631.362 405.458,623.677 
							412.424,623.677 412.424,631.362 419.39,631.362 419.39,623.677 426.356,623.677 426.356,631.362 433.319,631.362 
							433.319,623.677 440.286,623.677 440.286,631.362 447.25,631.362 447.25,623.677 454.217,623.677 454.217,631.362 
							461.181,631.362 461.181,623.677 468.148,623.677 468.148,631.362 475.111,631.362 475.111,623.677 482.078,623.677 
							482.078,631.362 489.043,631.362 489.043,623.677 496.008,623.677 496.008,631.362 502.975,631.362 502.975,623.677 
							509.939,623.677 509.939,631.362 516.904,631.362 516.904,623.677 523.87,623.677 523.87,631.362 530.836,631.362 
							530.836,623.677 537.8,623.677 537.8,631.362 544.766,631.362 544.766,623.677 551.732,623.677 551.732,631.362 
							558.696,631.362 558.696,623.677 565.661,623.677 565.661,631.362 572.627,631.362 572.627,623.677 579.592,623.677 
							579.592,631.362 586.557,631.362 586.557,623.677 593.521,623.677 593.521,631.362 600.489,631.362 600.489,623.677 
							607.454,623.677 607.454,631.362 614.417,631.362 614.417,623.677 621.384,623.677 621.384,631.362 628.351,631.362 
							628.351,623.677 635.315,623.677 635.315,631.362 642.28,631.362 642.28,623.677 649.247,623.677 649.247,631.362 
							656.211,631.362 656.211,623.677 663.176,623.677 663.176,631.362 670.142,631.362 670.142,623.677 677.107,623.677 
							677.107,631.362 684.073,631.362 684.073,623.677 691.038,623.677 691.038,631.362 698.003,631.362 698.003,623.677 
							704.97,623.677 704.97,631.362 711.934,631.362 711.934,623.677 718.898,623.677 718.898,631.362 725.866,631.362 
							725.866,623.677 732.832,623.677 732.832,631.362 739.794,631.362 739.794,623.677 746.759,623.677 746.759,631.362 
							753.728,631.362 753.728,623.677 760.691,623.677 760.691,631.362 767.658,631.362 767.658,623.677 774.624,623.677 
							774.624,631.362 781.587,631.362 781.587,623.677 788.553,623.677 788.553,631.362 795.518,631.362 795.518,623.677 
							802.484,623.677 802.484,631.362 809.45,631.362 809.45,623.677 816.414,623.677 816.414,631.362 823.379,631.362 
							823.379,623.677 830.344,623.677 830.344,631.362 837.312,631.362 837.312,623.677 844.273,623.677 844.273,631.362 
							851.243,631.362 851.243,623.677 858.205,623.677 858.205,631.362 865.172,631.362 865.172,623.677 872.138,623.677 
							872.138,631.362 879.1,631.362 879.1,623.677 886.069,623.677 886.069,631.362 893.034,631.362 893.034,623.677 900,623.677 
							900,631.362 906.963,631.362 906.963,623.677 913.93,623.677 913.93,631.362 920.895,631.362 920.895,623.677 927.86,623.677 
							927.86,631.362 934.826,631.362 934.826,623.677 941.79,623.677 941.79,631.362 948.752,631.362 948.752,623.677 
							955.722,623.677 955.722,631.362 962.684,631.362 962.684,623.677 969.653,623.677 969.653,631.362 976.618,631.362 
							976.618,623.677 983.582,623.677 983.582,631.362 990.549,631.362 990.549,623.677 997.511,623.677 997.511,631.362 
							1004.479,631.362 1004.479,623.677 1011.444,623.677 1011.444,631.362 1018.408,631.362 1018.408,623.677 1025.373,623.677 
							1025.373,631.362 1032.341,631.362 1032.341,623.677 1039.307,623.677 1039.307,631.362 1046.27,631.362 1046.27,623.677 
							1053.236,623.677 1053.236,631.362 1060.201,631.362 1060.201,623.677 1067.165,623.677 1067.165,631.362 1074.132,631.362 
							1074.132,623.677 1081.096,623.677 1081.096,631.362 1088.065,631.362 1088.065,623.677 1095.027,623.677 1095.027,631.362 
							1101.994,631.362 1101.994,623.677 1108.96,623.677 1108.96,631.362 1115.924,631.362 1115.924,623.677 1122.889,623.677 
							1122.889,631.362 1129.855,631.362 1129.855,623.677 1136.819,623.677 1136.819,631.362 1143.783,631.362 1143.783,623.677 
							1150.749,623.677 1150.749,631.362 1154.218,631.362 1154.218,623.677 1154.218,623.122 1154.218,615.439 						"/>
						<g>
							<polygon fill="#6D7779" points="-2,521.238 -2,528.922 -2,529.476 -2,537.16 1.469,537.16 1.469,529.476 8.434,529.476 
								8.434,537.16 15.4,537.16 15.4,529.476 22.366,529.476 22.366,537.16 29.33,537.16 29.33,529.476 36.296,529.476 
								36.296,537.16 43.262,537.16 43.262,529.476 50.227,529.476 50.227,537.16 57.194,537.16 57.194,529.476 64.158,529.476 
								64.158,537.16 71.122,537.16 71.122,529.476 78.088,529.476 78.088,537.16 85.054,537.16 85.054,529.476 92.019,529.476 
								92.019,537.16 98.985,537.16 98.985,529.476 105.95,529.476 105.95,537.16 112.915,537.16 112.915,529.476 119.879,529.476 
								119.879,537.16 126.846,537.16 126.846,529.476 133.812,529.476 133.812,537.16 140.777,537.16 140.777,529.476 
								147.741,529.476 147.741,537.16 154.707,537.16 154.707,529.476 161.671,529.476 161.671,537.16 168.638,537.16 
								168.638,529.476 175.603,529.476 175.603,537.16 182.568,537.16 182.568,529.476 189.532,529.476 189.532,537.16 
								196.499,537.16 196.499,529.476 203.464,529.476 203.464,537.16 210.43,537.16 210.43,529.476 217.395,529.476 
								217.395,537.16 224.361,537.16 224.361,529.476 231.325,529.476 231.325,537.16 238.292,537.16 238.292,529.476 
								245.255,529.476 245.255,537.16 252.222,537.16 252.222,529.476 259.187,529.476 259.187,537.16 266.153,537.16 
								266.153,529.476 273.117,529.476 273.117,537.16 280.083,537.16 280.083,529.476 287.048,529.476 287.048,537.16 
								294.014,537.16 294.014,529.476 300.98,529.476 300.98,537.16 307.945,537.16 307.945,529.476 314.909,529.476 
								314.909,537.16 321.875,537.16 321.875,529.476 328.841,529.476 328.841,537.16 335.806,537.16 335.806,529.476 
								342.772,529.476 342.772,537.16 349.736,537.16 349.736,529.476 356.701,529.476 356.701,537.16 363.666,537.16 
								363.666,529.476 370.633,529.476 370.633,537.16 377.598,537.16 377.598,529.476 384.563,529.476 384.563,537.16 
								391.527,537.16 391.527,529.476 398.494,529.476 398.494,537.16 405.458,537.16 405.458,529.476 412.424,529.476 
								412.424,537.16 419.39,537.16 419.39,529.476 426.356,529.476 426.356,537.16 433.319,537.16 433.319,529.476 
								440.286,529.476 440.286,537.16 447.25,537.16 447.25,529.476 454.218,529.476 454.218,537.16 461.181,537.16 
								461.181,529.476 468.147,529.476 468.147,537.16 475.111,537.16 475.111,529.476 482.079,529.476 482.079,537.16 
								489.043,537.16 489.043,529.476 496.008,529.476 496.008,537.16 502.975,537.16 502.975,529.476 509.939,529.476 
								509.939,537.16 516.904,537.16 516.904,529.476 523.87,529.476 523.87,537.16 530.836,537.16 530.836,529.476 537.8,529.476 
								537.8,537.16 544.767,537.16 544.767,529.476 551.733,529.476 551.733,537.16 558.697,537.16 558.697,529.476 
								565.661,529.476 565.661,537.16 572.627,537.16 572.627,529.476 579.592,529.476 579.592,537.16 586.557,537.16 
								586.557,529.476 593.521,529.476 593.521,537.16 600.489,537.16 600.489,529.476 607.454,529.476 607.454,537.16 
								614.417,537.16 614.417,529.476 621.384,529.476 621.384,537.16 628.351,537.16 628.351,529.476 635.315,529.476 
								635.315,537.16 642.28,537.16 642.28,529.476 649.247,529.476 649.247,537.16 656.211,537.16 656.211,529.476 
								663.176,529.476 663.176,537.16 670.142,537.16 670.142,529.476 677.107,529.476 677.107,537.16 684.073,537.16 
								684.073,529.476 691.038,529.476 691.038,537.16 698.003,537.16 698.003,529.476 704.97,529.476 704.97,537.16 
								711.934,537.16 711.934,529.476 718.898,529.476 718.898,537.16 725.866,537.16 725.866,529.476 732.832,529.476 
								732.832,537.16 739.794,537.16 739.794,529.476 746.759,529.476 746.759,537.16 753.728,537.16 753.728,529.476 
								760.691,529.476 760.691,537.16 767.658,537.16 767.658,529.476 774.624,529.476 774.624,537.16 781.587,537.16 
								781.587,529.476 788.553,529.476 788.553,537.16 795.518,537.16 795.518,529.476 802.484,529.476 802.484,537.16 
								809.45,537.16 809.45,529.476 816.414,529.476 816.414,537.16 823.379,537.16 823.379,529.476 830.344,529.476 
								830.344,537.16 837.312,537.16 837.312,529.476 844.273,529.476 844.273,537.16 851.243,537.16 851.243,529.476 
								858.205,529.476 858.205,537.16 865.172,537.16 865.172,529.476 872.138,529.476 872.138,537.16 879.1,537.16 879.1,529.476 
								886.069,529.476 886.069,537.16 893.034,537.16 893.034,529.476 900,529.476 900,537.16 906.963,537.16 906.963,529.476 
								913.93,529.476 913.93,537.16 920.895,537.16 920.895,529.476 927.86,529.476 927.86,537.16 934.826,537.16 934.826,529.476 
								941.79,529.476 941.79,537.16 948.752,537.16 948.752,529.476 955.722,529.476 955.722,537.16 962.684,537.16 
								962.684,529.476 969.653,529.476 969.653,537.16 976.618,537.16 976.618,529.476 983.582,529.476 983.582,537.16 
								990.549,537.16 990.549,529.476 997.511,529.476 997.511,537.16 1004.479,537.16 1004.479,529.476 1011.444,529.476 
								1011.444,537.16 1018.408,537.16 1018.408,529.476 1025.373,529.476 1025.373,537.16 1032.341,537.16 1032.341,529.476 
								1039.307,529.476 1039.307,537.16 1046.27,537.16 1046.27,529.476 1053.236,529.476 1053.236,537.16 1060.201,537.16 
								1060.201,529.476 1067.165,529.476 1067.165,537.16 1074.132,537.16 1074.132,529.476 1081.096,529.476 1081.096,537.16 
								1088.065,537.16 1088.065,529.476 1095.027,529.476 1095.027,537.16 1101.994,537.16 1101.994,529.476 1108.96,529.476 
								1108.96,537.16 1115.924,537.16 1115.924,529.476 1122.889,529.476 1122.889,537.16 1129.855,537.16 1129.855,529.476 
								1136.819,529.476 1136.819,537.16 1143.783,537.16 1143.783,529.476 1150.749,529.476 1150.749,537.16 1154.218,537.16 
								1154.218,529.476 1154.218,528.922 1154.218,521.238 							"/>
						</g>
					</g>
				</g>
				<g clip-path="url(#SVGID_6_)">
					<g>
						<rect x="90.885" y="466.622" fill="#A55826" width="6.545" height="43.793"/>
						<ellipse fill="#00A179" cx="94.158" cy="464.387" rx="27.397" ry="26.805"/>
					</g>
					<g>
						<rect x="164.21" y="486.635" fill="#733416" width="6.546" height="24.75"/>
						<path fill="#00B090" d="M195.818,468.391c0.002-0.089,0.014-0.176,0.014-0.269c0-14.804-12.266-26.807-27.396-26.807
							c-13.351,0-24.458,9.35-26.89,21.716c-7.608,1.415-13.362,7.946-13.362,15.802c0,8.888,7.364,16.094,16.448,16.094
							c3.882,0,44.526,0,48.449,0c7.566,0,13.7-5.999,13.7-13.402C206.782,475.04,202.073,469.631,195.818,468.391z"/>
					</g>
				</g>
				<g clip-path="url(#SVGID_6_)">
					<g>
						<rect x="998.584" y="473.111" fill="#733416" width="6.852" height="45.839"/>
						<ellipse fill="#00A179" cx="1002.009" cy="470.771" rx="28.679" ry="28.059"/>
					</g>
					<g>
						<rect x="1074.49" y="483.728" fill="#733416" width="6.855" height="25.911"/>
						<path fill="#00B090" d="M1107.581,464.632c0-0.094,0.015-0.187,0.015-0.282c0-15.498-12.84-28.06-28.68-28.06
							c-13.977,0-25.604,9.786-28.146,22.731c-7.966,1.479-13.991,8.319-13.991,16.54c0,9.304,7.71,16.848,17.222,16.848
							c4.063,0,46.61,0,50.715,0c7.919,0,14.34-6.282,14.34-14.03C1119.056,471.592,1114.128,465.929,1107.581,464.632z"/>
					</g>
				</g>
				<g clip-path="url(#SVGID_6_)">
					<g>
						<rect x="722.135" y="500.12" fill="#733416" width="5.93" height="11.294"/>
						<rect x="761.892" y="500.12" fill="#733416" width="5.931" height="11.294"/>
					</g>
					<g>
						<rect x="729.138" y="486.282" fill="#733416" width="5.929" height="13.838"/>
						<rect x="754.892" y="486.282" fill="#733416" width="5.929" height="13.838"/>
					</g>
					<rect x="713.435" y="497.411" fill="#A55826" width="63.089" height="6.462"/>
					<rect x="713.435" y="483.052" fill="#A55826" width="63.089" height="10.663"/>
				</g>
				<g clip-path="url(#SVGID_6_)">
					<g>
						<rect x="804.215" y="500.12" fill="#733416" width="5.93" height="11.294"/>
						<rect x="843.975" y="500.12" fill="#733416" width="5.93" height="11.294"/>
					</g>
					<g>
						<rect x="811.221" y="486.282" fill="#733416" width="5.928" height="13.838"/>
						<rect x="836.973" y="486.282" fill="#733416" width="5.928" height="13.838"/>
					</g>
					<rect x="795.518" y="497.411" fill="#A55826" width="63.086" height="6.462"/>
					<rect x="795.518" y="483.052" fill="#A55826" width="63.086" height="10.663"/>
				</g>
				<g id="car3" clip-path="url(#SVGID_6_)">
					<path fill="none" d="M191.995,585.321c0.385,0.004,0.756,0.063,1.125,0.128c-0.354-0.074-0.711-0.125-1.076-0.133
						C192.027,585.316,192.013,585.324,191.995,585.321z"/>
					<path fill="none" d="M189.609,585.758c-0.222,0.08-0.453,0.131-0.666,0.231C189.156,585.889,189.388,585.838,189.609,585.758z"
						/>
					<path fill="none" d="M185.899,588.592c-0.134,0.187-0.287,0.355-0.408,0.554C185.612,588.947,185.766,588.778,185.899,588.592z
						"/>
					<path fill="none" d="M188.203,586.431c-0.197,0.122-0.406,0.219-0.591,0.359C187.797,586.649,188.006,586.553,188.203,586.431z
						"/>
					<path fill="none" d="M237.569,589.146c-0.122-0.201-0.276-0.372-0.413-0.56C237.293,588.772,237.448,588.944,237.569,589.146z"
						/>
					<path fill="none" d="M185.061,590.025c-0.095,0.206-0.213,0.393-0.294,0.604C184.847,590.418,184.965,590.231,185.061,590.025z
						"/>
					<path fill="none" d="M184.47,591.693c-0.049,0.195-0.125,0.378-0.161,0.578C184.345,592.071,184.421,591.889,184.47,591.693z"
						/>
					<path fill="none" d="M199.65,595.139c0.039-0.285,0.061-0.574,0.07-0.87C199.711,594.564,199.689,594.854,199.65,595.139z"/>
					<path fill="none" d="M223.339,594.269c0.011,0.296,0.032,0.585,0.071,0.87C223.372,594.854,223.35,594.564,223.339,594.269z"/>
					<path fill="none" d="M234.118,585.989c-0.215-0.101-0.448-0.153-0.671-0.233C233.67,585.836,233.904,585.889,234.118,585.989z"
						/>
					<path fill="none" d="M232.646,585.486c-0.234-0.05-0.48-0.052-0.722-0.078C232.165,585.435,232.413,585.437,232.646,585.486z"
						/>
					<path fill="none" d="M235.45,586.79c-0.188-0.143-0.4-0.241-0.598-0.364C235.05,586.549,235.262,586.647,235.45,586.79z"/>
					<path fill="none" d="M191.134,585.408c-0.24,0.026-0.487,0.028-0.719,0.078C190.647,585.437,190.895,585.435,191.134,585.408z"
						/>
					<path fill="none" d="M199.618,592.697c0.055,0.397,0.106,0.801,0.111,1.217C199.722,593.519,199.694,593.113,199.618,592.697z"
						/>
					<path fill="none" d="M223.456,595.472c0.063,0.372,0.142,0.737,0.239,1.094C223.598,596.209,223.519,595.844,223.456,595.472z"
						/>
					<path fill="none" d="M199.367,596.565c0.097-0.356,0.174-0.722,0.237-1.094C199.541,595.844,199.463,596.209,199.367,596.565z"
						/>
					<path fill="none" d="M186.451,587.852c0.155-0.173,0.34-0.31,0.508-0.469C186.79,587.542,186.606,587.679,186.451,587.852z"/>
					<path fill="none" d="M223.332,593.914c0.005-0.416,0.055-0.819,0.11-1.217C223.367,593.113,223.339,593.519,223.332,593.914z"
						/>
					<path fill="none" d="M238.752,592.271c-0.036-0.193-0.109-0.373-0.157-0.564C238.643,591.898,238.716,592.078,238.752,592.271z
						"/>
					<path fill="none" d="M229.941,585.447c0.37-0.063,0.741-0.122,1.125-0.126c-0.017,0.003-0.032-0.005-0.049-0.005
						C230.653,585.324,230.295,585.375,229.941,585.447z"/>
					<path fill="none" d="M236.1,587.382c0.169,0.158,0.354,0.297,0.512,0.47C236.454,587.678,236.27,587.54,236.1,587.382z"/>
					<path fill="none" d="M238.294,590.629c-0.082-0.211-0.197-0.396-0.291-0.6C238.097,590.232,238.212,590.418,238.294,590.629z"
						/>
					<path fill="#F2676B" d="M184.149,594.037c0-0.605,0.054-1.195,0.16-1.766c0.036-0.2,0.112-0.383,0.161-0.578
						c0.09-0.359,0.168-0.725,0.297-1.063c0.081-0.212,0.199-0.398,0.294-0.604c0.139-0.299,0.263-0.604,0.431-0.88
						c0.121-0.198,0.274-0.367,0.408-0.554c0.181-0.25,0.347-0.513,0.551-0.74c0.155-0.173,0.339-0.31,0.508-0.469
						c0.215-0.2,0.419-0.418,0.653-0.593c0.185-0.141,0.394-0.237,0.591-0.359c0.244-0.151,0.479-0.319,0.74-0.441
						c0.212-0.101,0.444-0.151,0.666-0.231c0.268-0.093,0.526-0.207,0.806-0.271c0.232-0.05,0.479-0.052,0.719-0.078
						c0.27-0.033,0.532-0.094,0.81-0.094c0.018,0,0.033,0.007,0.05,0.007c0.018,0.003,0.032-0.005,0.049-0.005
						c0.365,0.008,0.722,0.059,1.076,0.133c3.35,0.57,5.979,3.504,6.498,7.248c0.077,0.416,0.104,0.821,0.111,1.217
						c0,0.041,0.01,0.081,0.01,0.123c0,0.078-0.016,0.152-0.019,0.231c-0.009,0.296-0.031,0.585-0.07,0.87
						c-0.016,0.111-0.027,0.224-0.046,0.333c-0.063,0.372-0.141,0.737-0.237,1.094h24.328c-0.097-0.356-0.176-0.722-0.239-1.094
						c-0.018-0.109-0.031-0.222-0.045-0.333c-0.039-0.285-0.061-0.574-0.071-0.87c-0.001-0.079-0.018-0.153-0.018-0.231
						c0-0.042,0.011-0.082,0.011-0.123c0.007-0.396,0.035-0.801,0.11-1.217c0.52-3.744,3.149-6.678,6.499-7.25
						c0.354-0.072,0.712-0.123,1.076-0.131c0.017,0,0.032,0.008,0.049,0.005c0.018,0,0.033-0.007,0.051-0.007
						c0.276,0,0.54,0.061,0.808,0.094c0.241,0.026,0.488,0.028,0.722,0.078c0.277,0.064,0.536,0.176,0.8,0.27
						c0.223,0.08,0.457,0.133,0.671,0.233c0.258,0.12,0.49,0.287,0.734,0.437c0.198,0.123,0.41,0.222,0.598,0.364
						c0.232,0.175,0.435,0.392,0.65,0.592c0.17,0.158,0.354,0.296,0.512,0.47c0.201,0.225,0.366,0.486,0.545,0.734
						c0.137,0.188,0.292,0.358,0.413,0.56c0.169,0.275,0.295,0.588,0.434,0.884c0.094,0.203,0.209,0.389,0.291,0.6
						c0.13,0.344,0.211,0.714,0.301,1.078c0.048,0.191,0.121,0.371,0.157,0.564c0.104,0.57,0.16,1.16,0.16,1.766
						c0,0.884-0.153,1.723-0.373,2.528h9.366v-0.153c0-8.135-5.896-14.731-13.168-14.731h-5.361h-3.438h-23.424h-15.267
						c-4.893,0-8.859,4.438-8.859,9.91v4.975h6.133C184.302,595.76,184.149,594.921,184.149,594.037z M203.758,585.853h4.352
						c0.687,0,1.244,0.626,1.244,1.394s-0.558,1.392-1.244,1.392h-4.352c-0.688,0-1.244-0.624-1.244-1.392
						S203.071,585.853,203.758,585.853z"/>
					<path fill="#D0585E" d="M210.355,572.909h5.525c2.774,0,5.378,1.494,6.999,4.015l3.059,4.757h3.438l-3.886-6.087
						c-2.245-3.511-5.867-5.597-9.726-5.597h-5.062c-5.278,0-10.376,2.142-14.348,6.027l-3.273,3.206
						c-1.615,1.579-3.688,2.45-5.833,2.45h15.267C202.514,576.837,206.025,572.909,210.355,572.909z"/>
					<path fill="#D8DEEB" d="M248.906,596.565h-1.001h-9.366c-0.342,1.258-0.917,2.394-1.69,3.338h11.057h1.001
						c0.825,0,1.492-0.746,1.492-1.669C250.398,597.313,249.731,596.565,248.906,596.565z"/>
					<path fill="#D8DEEB" d="M199.367,596.565c-0.344,1.258-0.917,2.394-1.691,3.338h27.71c-0.774-0.944-1.349-2.08-1.691-3.338
						H199.367z"/>
					<path fill="#D8DEEB" d="M178.389,596.565h-1c-0.825,0-1.493,0.748-1.493,1.669c0,0.923,0.668,1.669,1.493,1.669h1h7.823
						c-0.774-0.944-1.348-2.08-1.69-3.338H178.389z"/>
					<path fill="#D8DEEB" d="M215.88,572.909h-5.525c-4.33,0-7.841,3.928-7.841,8.771h23.424l-3.059-4.757
						C221.258,574.403,218.654,572.909,215.88,572.909z"/>
					<path fill="#484856" d="M238.912,594.037c0-0.605-0.056-1.195-0.16-1.766c-0.036-0.193-0.109-0.373-0.157-0.564
						c-0.089-0.364-0.171-0.734-0.301-1.078c-0.082-0.211-0.197-0.396-0.291-0.6c-0.139-0.296-0.265-0.608-0.434-0.884
						c-0.122-0.201-0.276-0.373-0.413-0.56c-0.179-0.248-0.344-0.51-0.545-0.734c-0.158-0.173-0.343-0.312-0.512-0.47
						c-0.215-0.2-0.417-0.417-0.65-0.592c-0.188-0.143-0.4-0.241-0.598-0.364c-0.244-0.149-0.476-0.316-0.734-0.437
						c-0.214-0.101-0.448-0.153-0.671-0.233c-0.265-0.094-0.523-0.205-0.8-0.27c-0.234-0.05-0.481-0.052-0.722-0.078
						c-0.269-0.033-0.532-0.094-0.808-0.094c-0.018,0-0.033,0.007-0.051,0.007c-0.384,0.004-0.755,0.063-1.125,0.126
						c-3.349,0.572-5.979,3.506-6.499,7.25c-0.056,0.397-0.105,0.801-0.11,1.217c0,0.041-0.011,0.081-0.011,0.123
						c0,0.078,0.017,0.152,0.018,0.231c0.011,0.296,0.032,0.585,0.071,0.87c0.015,0.111,0.027,0.224,0.045,0.333
						c0.063,0.372,0.142,0.737,0.239,1.094c0.342,1.258,0.917,2.394,1.691,3.338c1.425,1.742,3.455,2.852,5.731,2.852
						c2.277,0,4.306-1.109,5.732-2.852c0.773-0.944,1.348-2.08,1.69-3.338C238.759,595.76,238.912,594.921,238.912,594.037z
						 M231.117,599.795c-2.027,0-3.765-1.324-4.603-3.229c-0.337-0.767-0.545-1.617-0.545-2.528c0-3.182,2.304-5.76,5.148-5.76
						s5.148,2.578,5.148,5.76c0,0.911-0.207,1.762-0.544,2.528C234.881,598.471,233.144,599.795,231.117,599.795z"/>
					<path fill="#D8DEEB" d="M231.117,588.277c-2.844,0-5.148,2.578-5.148,5.76c0,0.911,0.208,1.762,0.545,2.528
						c0.838,1.905,2.576,3.229,4.603,3.229c2.027,0,3.765-1.324,4.604-3.229c0.337-0.767,0.544-1.617,0.544-2.528
						C236.265,590.855,233.96,588.277,231.117,588.277z M231.117,591.557c1.224,0,2.215,1.111,2.215,2.48s-0.992,2.478-2.215,2.478
						c-1.224,0-2.215-1.108-2.215-2.478S229.893,591.557,231.117,591.557z"/>
					<ellipse fill="#484856" cx="231.117" cy="594.036" rx="2.215" ry="2.479"/>
					<path fill="#484856" d="M199.604,595.472c0.02-0.109,0.031-0.222,0.046-0.333c0.039-0.285,0.061-0.574,0.07-0.87
						c0.003-0.079,0.019-0.153,0.019-0.231c0-0.042-0.01-0.082-0.01-0.123c-0.005-0.416-0.056-0.819-0.111-1.217
						c-0.519-3.744-3.148-6.678-6.498-7.248c-0.369-0.064-0.74-0.124-1.125-0.128c-0.018,0-0.033-0.007-0.05-0.007
						c-0.278,0-0.541,0.061-0.81,0.094c-0.24,0.026-0.487,0.028-0.719,0.078c-0.28,0.064-0.539,0.179-0.806,0.271
						c-0.221,0.08-0.453,0.131-0.666,0.231c-0.261,0.122-0.497,0.29-0.74,0.441c-0.197,0.122-0.406,0.219-0.591,0.359
						c-0.234,0.175-0.438,0.393-0.653,0.593c-0.168,0.159-0.353,0.296-0.508,0.469c-0.204,0.228-0.371,0.49-0.551,0.74
						c-0.134,0.187-0.287,0.355-0.408,0.554c-0.168,0.275-0.292,0.581-0.431,0.88c-0.095,0.206-0.213,0.393-0.294,0.604
						c-0.128,0.339-0.207,0.704-0.297,1.063c-0.049,0.195-0.125,0.378-0.161,0.578c-0.106,0.57-0.16,1.16-0.16,1.766
						c0,0.884,0.153,1.723,0.373,2.528c0.343,1.258,0.917,2.394,1.69,3.338c1.427,1.742,3.456,2.852,5.732,2.852
						s4.305-1.109,5.731-2.852c0.774-0.944,1.348-2.08,1.691-3.338C199.463,596.209,199.541,595.844,199.604,595.472z
						 M191.944,599.795c-2.028,0-3.765-1.324-4.603-3.229c-0.339-0.767-0.546-1.617-0.546-2.528c0-3.182,2.305-5.76,5.149-5.76
						c2.843,0,5.148,2.578,5.148,5.76c0,0.911-0.207,1.762-0.545,2.528C195.708,598.471,193.972,599.795,191.944,599.795z"/>
					<path fill="#D8DEEB" d="M191.944,588.277c-2.844,0-5.149,2.578-5.149,5.76c0,0.911,0.207,1.762,0.546,2.528
						c0.838,1.905,2.575,3.229,4.603,3.229c2.027,0,3.764-1.324,4.603-3.229c0.338-0.767,0.545-1.617,0.545-2.528
						C197.092,590.855,194.787,588.277,191.944,588.277z M191.944,591.557c1.224,0,2.215,1.111,2.215,2.48s-0.992,2.478-2.215,2.478
						c-1.224,0-2.216-1.108-2.216-2.478S190.72,591.557,191.944,591.557z"/>
					<ellipse fill="#484856" cx="191.944" cy="594.036" rx="2.215" ry="2.479"/>
					<path fill="#D0585E" d="M203.758,588.638h4.352c0.687,0,1.244-0.624,1.244-1.392s-0.558-1.394-1.244-1.394h-4.352
						c-0.688,0-1.244,0.626-1.244,1.394S203.071,588.638,203.758,588.638z"/>
				</g>
				<g id="car2" clip-path="url(#SVGID_6_)">
					<path fill="none" d="M913.219,546.479c-0.463,0.004-0.916,0.072-1.365,0.145c0.431-0.086,0.865-0.145,1.309-0.15
						C913.182,546.473,913.201,546.479,913.219,546.479z"/>
					<path fill="none" d="M916.114,546.978c0.27,0.088,0.55,0.149,0.807,0.265C916.664,547.127,916.384,547.065,916.114,546.978z"/>
					<path fill="none" d="M920.613,550.216c0.164,0.212,0.35,0.404,0.496,0.633C920.963,550.62,920.777,550.428,920.613,550.216z"/>
					<path fill="none" d="M917.821,547.746c0.236,0.137,0.491,0.25,0.715,0.411C918.313,547.996,918.058,547.883,917.821,547.746z"
						/>
					<path fill="none" d="M857.938,550.849c0.149-0.231,0.337-0.425,0.502-0.643C858.274,550.424,858.087,550.617,857.938,550.849z"
						/>
					<path fill="none" d="M921.633,551.853c0.116,0.233,0.258,0.45,0.354,0.692C921.891,552.303,921.749,552.086,921.633,551.853z"
						/>
					<path fill="none" d="M922.35,553.758c0.059,0.225,0.148,0.434,0.192,0.661C922.498,554.191,922.408,553.982,922.35,553.758z"/>
					<path fill="none" d="M903.933,557.695c-0.044-0.325-0.074-0.657-0.081-0.995C903.858,557.038,903.889,557.37,903.933,557.695z"
						/>
					<path fill="none" d="M875.199,556.7c-0.013,0.338-0.039,0.67-0.085,0.995C875.16,557.37,875.187,557.038,875.199,556.7z"/>
					<path fill="none" d="M862.126,547.242c0.261-0.115,0.542-0.178,0.813-0.268C862.668,547.064,862.385,547.127,862.126,547.242z"
						/>
					<path fill="none" d="M863.909,546.669c0.282-0.059,0.585-0.06,0.874-0.092C864.494,546.609,864.191,546.61,863.909,546.669z"/>
					<path fill="none" d="M860.509,548.157c0.229-0.163,0.486-0.276,0.725-0.416C860.995,547.88,860.738,547.994,860.509,548.157z"
						/>
					<path fill="none" d="M914.265,546.577c0.291,0.032,0.591,0.033,0.871,0.092C914.855,546.61,914.556,546.609,914.265,546.577z"
						/>
					<path fill="none" d="M903.971,554.905c-0.064,0.455-0.126,0.917-0.132,1.391C903.847,555.844,903.878,555.383,903.971,554.905z
						"/>
					<path fill="none" d="M875.058,558.077c-0.079,0.424-0.172,0.842-0.287,1.249C874.886,558.919,874.979,558.501,875.058,558.077z
						"/>
					<path fill="none" d="M904.277,559.326c-0.117-0.407-0.211-0.825-0.287-1.249C904.066,558.501,904.16,558.919,904.277,559.326z"
						/>
					<path fill="none" d="M919.947,549.371c-0.189-0.199-0.412-0.357-0.618-0.535C919.535,549.014,919.758,549.172,919.947,549.371z
						"/>
					<path fill="none" d="M875.207,556.296c-0.006-0.474-0.065-0.936-0.135-1.391C875.166,555.383,875.201,555.844,875.207,556.296z
						"/>
					<path fill="none" d="M856.503,554.419c0.043-0.222,0.135-0.426,0.191-0.644C856.638,553.993,856.546,554.197,856.503,554.419z"
						/>
					<path fill="none" d="M867.191,546.623c-0.448-0.072-0.899-0.141-1.365-0.145c0.021,0,0.038-0.006,0.06-0.006
						C866.327,546.479,866.762,546.537,867.191,546.623z"/>
					<path fill="none" d="M859.721,548.832c-0.205,0.182-0.429,0.34-0.619,0.539C859.292,549.172,859.516,549.014,859.721,548.832z"
						/>
					<path fill="none" d="M857.062,552.542c0.095-0.239,0.236-0.452,0.352-0.683C857.298,552.09,857.156,552.303,857.062,552.542z"
						/>
					<path fill="#FFD169" d="M922.284,559.326h7.438v-5.685c0-6.254-4.81-11.324-10.744-11.324h-18.52h-28.412h-4.171h-6.504
						c-8.821,0-15.971,7.536-15.971,16.833v0.176h11.359c-0.266-0.92-0.453-1.879-0.453-2.891c0-0.692,0.071-1.364,0.195-2.017
						c0.043-0.222,0.135-0.426,0.191-0.644c0.11-0.416,0.207-0.838,0.367-1.233c0.095-0.239,0.236-0.452,0.352-0.683
						c0.168-0.343,0.32-0.693,0.524-1.011c0.149-0.231,0.337-0.425,0.502-0.643c0.217-0.281,0.418-0.579,0.662-0.835
						c0.19-0.199,0.414-0.357,0.619-0.539c0.262-0.23,0.507-0.478,0.788-0.675c0.229-0.163,0.486-0.276,0.725-0.416
						c0.296-0.17,0.579-0.361,0.893-0.499c0.261-0.115,0.542-0.178,0.813-0.268c0.322-0.105,0.635-0.235,0.971-0.306
						c0.282-0.059,0.585-0.06,0.874-0.092c0.33-0.036,0.646-0.105,0.983-0.105c0.021,0,0.04,0.006,0.06,0.007
						c0.021,0,0.038-0.006,0.06-0.006c0.441,0.006,0.876,0.064,1.306,0.15c4.063,0.652,7.252,4.004,7.881,8.282
						c0.094,0.478,0.129,0.938,0.135,1.391c0.004,0.049,0.012,0.093,0.012,0.14c0,0.09-0.018,0.176-0.02,0.265
						c-0.013,0.338-0.039,0.67-0.085,0.995c-0.021,0.127-0.032,0.256-0.057,0.382c-0.079,0.424-0.172,0.842-0.287,1.249h29.507
						c-0.117-0.407-0.211-0.825-0.287-1.249c-0.022-0.126-0.039-0.255-0.058-0.382c-0.044-0.325-0.074-0.657-0.081-0.995
						c-0.005-0.089-0.025-0.175-0.025-0.265c0-0.047,0.013-0.091,0.013-0.14c0.008-0.452,0.039-0.913,0.132-1.391
						c0.632-4.278,3.821-7.63,7.883-8.282c0.431-0.086,0.865-0.145,1.309-0.15c0.02,0,0.039,0.006,0.057,0.006
						c0.023-0.001,0.042-0.007,0.062-0.007c0.338,0,0.656,0.069,0.984,0.105c0.291,0.032,0.591,0.033,0.871,0.092
						c0.34,0.07,0.653,0.2,0.979,0.309c0.27,0.088,0.55,0.149,0.807,0.265c0.316,0.139,0.603,0.33,0.9,0.504
						c0.236,0.137,0.491,0.25,0.715,0.411c0.286,0.197,0.533,0.444,0.793,0.679c0.206,0.178,0.429,0.336,0.618,0.535
						c0.245,0.26,0.445,0.558,0.666,0.845c0.164,0.212,0.35,0.404,0.496,0.633c0.204,0.313,0.355,0.667,0.523,1.004
						c0.116,0.233,0.258,0.45,0.354,0.692c0.156,0.386,0.252,0.805,0.362,1.213c0.059,0.225,0.148,0.434,0.192,0.661
						c0.128,0.652,0.195,1.324,0.195,2.017C922.737,557.447,922.553,558.406,922.284,559.326z M900.459,548.677
						c0,0.877-0.675,1.591-1.507,1.591h-5.279c-0.835,0-1.51-0.714-1.51-1.591c0-0.878,0.675-1.59,1.51-1.59h5.279
						C899.784,547.087,900.459,547.799,900.459,548.677z"/>
					<path fill="#FCB017" d="M844.186,559.326h1.216h11.359c0.418,1.438,1.113,2.733,2.052,3.814h-13.411h-1.216
						c-1.001,0-1.809-0.853-1.809-1.907C842.377,560.18,843.185,559.326,844.186,559.326z"/>
					<path fill="#FCB017" d="M904.277,559.326c0.417,1.438,1.112,2.733,2.052,3.814h-33.611c0.94-1.081,1.636-2.377,2.053-3.814
						H904.277z"/>
					<path fill="#FCB017" d="M929.723,559.326h1.217c0.999,0,1.808,0.854,1.808,1.907c0,1.055-0.809,1.907-1.808,1.907h-1.217
						h-9.491c0.941-1.081,1.636-2.377,2.053-3.814H929.723z"/>
					<path fill="#484856" d="M856.761,559.326c0.418,1.438,1.113,2.733,2.052,3.814c1.73,1.99,4.192,3.258,6.954,3.258
						c2.759,0,5.224-1.268,6.951-3.258c0.94-1.081,1.636-2.377,2.053-3.814c0.115-0.407,0.208-0.825,0.287-1.249
						c0.024-0.126,0.036-0.255,0.057-0.382c0.046-0.325,0.072-0.657,0.085-0.995c0.002-0.089,0.02-0.175,0.02-0.265
						c0-0.047-0.008-0.091-0.012-0.14c-0.006-0.474-0.065-0.936-0.135-1.391c-0.629-4.278-3.817-7.63-7.881-8.282
						c-0.448-0.072-0.899-0.141-1.365-0.145c-0.02-0.001-0.039-0.007-0.06-0.007c-0.337,0-0.653,0.069-0.983,0.105
						c-0.289,0.032-0.592,0.033-0.874,0.092c-0.336,0.07-0.648,0.2-0.971,0.306c-0.271,0.09-0.554,0.152-0.813,0.268
						c-0.313,0.138-0.597,0.329-0.893,0.499c-0.238,0.139-0.495,0.253-0.725,0.416c-0.281,0.197-0.526,0.444-0.788,0.675
						c-0.205,0.182-0.429,0.34-0.619,0.539c-0.244,0.256-0.445,0.554-0.662,0.835c-0.165,0.218-0.353,0.411-0.502,0.643
						c-0.204,0.317-0.356,0.668-0.524,1.011c-0.115,0.23-0.257,0.443-0.352,0.683c-0.16,0.396-0.257,0.817-0.367,1.233
						c-0.057,0.218-0.148,0.422-0.191,0.644c-0.124,0.652-0.195,1.324-0.195,2.017C856.308,557.447,856.495,558.406,856.761,559.326
						z M860.181,559.326c-0.408-0.877-0.66-1.85-0.66-2.891c0-3.635,2.797-6.58,6.246-6.58c3.446,0,6.243,2.945,6.243,6.58
						c0,1.041-0.252,2.014-0.659,2.891c-1.02,2.177-3.126,3.688-5.584,3.688C863.306,563.015,861.2,561.503,860.181,559.326z"/>
					<path fill="#D8DEEB" d="M859.521,556.436c0,1.041,0.252,2.014,0.66,2.891c1.02,2.177,3.125,3.688,5.586,3.688
						c2.458,0,4.564-1.512,5.584-3.688c0.407-0.877,0.659-1.85,0.659-2.891c0-3.635-2.797-6.58-6.243-6.58
						C862.317,549.855,859.521,552.801,859.521,556.436z M868.451,556.436c0,1.563-1.199,2.832-2.685,2.832
						c-1.484,0-2.688-1.269-2.688-2.832c0-1.564,1.204-2.832,2.688-2.832C867.252,553.604,868.451,554.871,868.451,556.436z"/>
					<ellipse fill="#484856" cx="865.767" cy="556.436" rx="2.688" ry="2.832"/>
					<path fill="#484856" d="M904.277,559.326c0.417,1.438,1.112,2.733,2.052,3.814c1.729,1.99,4.191,3.258,6.951,3.258
						c2.764,0,5.226-1.268,6.951-3.258c0.941-1.081,1.636-2.377,2.053-3.814c0.269-0.92,0.453-1.879,0.453-2.891
						c0-0.692-0.067-1.364-0.195-2.017c-0.044-0.228-0.134-0.437-0.192-0.661c-0.11-0.408-0.206-0.827-0.362-1.213
						c-0.097-0.242-0.238-0.459-0.354-0.692c-0.168-0.337-0.319-0.691-0.523-1.004c-0.146-0.229-0.332-0.421-0.496-0.633
						c-0.221-0.287-0.421-0.585-0.666-0.845c-0.189-0.199-0.412-0.357-0.618-0.535c-0.26-0.234-0.507-0.481-0.793-0.679
						c-0.224-0.161-0.479-0.274-0.715-0.411c-0.298-0.174-0.584-0.365-0.9-0.504c-0.257-0.115-0.537-0.177-0.807-0.265
						c-0.325-0.108-0.639-0.238-0.979-0.309c-0.28-0.059-0.58-0.06-0.871-0.092c-0.328-0.036-0.646-0.105-0.984-0.105
						c-0.02,0-0.038,0.006-0.062,0.007c-0.463,0.004-0.916,0.072-1.365,0.145c-4.062,0.652-7.251,4.004-7.883,8.282
						c-0.064,0.455-0.126,0.917-0.132,1.391c0,0.049-0.013,0.093-0.013,0.14c0,0.09,0.021,0.176,0.025,0.265
						c0.007,0.338,0.037,0.67,0.081,0.995c0.019,0.127,0.035,0.256,0.058,0.382C904.066,558.501,904.16,558.919,904.277,559.326z
						 M907.697,559.326c-0.41-0.877-0.66-1.85-0.66-2.891c0-3.635,2.796-6.58,6.243-6.58c3.452,0,6.246,2.945,6.246,6.58
						c0,1.041-0.252,2.014-0.66,2.891c-1.021,2.177-3.124,3.688-5.586,3.688C910.823,563.015,908.716,561.503,907.697,559.326z"/>
					<path fill="#D8DEEB" d="M907.037,556.436c0,1.041,0.25,2.014,0.66,2.891c1.019,2.177,3.126,3.688,5.583,3.688
						c2.462,0,4.565-1.512,5.586-3.688c0.408-0.877,0.66-1.85,0.66-2.891c0-3.635-2.794-6.58-6.246-6.58
						C909.833,549.855,907.037,552.801,907.037,556.436z M915.968,556.436c0,1.563-1.202,2.832-2.688,2.832
						c-1.481,0-2.686-1.269-2.686-2.832c0-1.564,1.204-2.832,2.686-2.832C914.766,553.604,915.968,554.871,915.968,556.436z"/>
					<ellipse fill="#484856" cx="913.28" cy="556.436" rx="2.686" ry="2.832"/>
					<path fill="#FCB017" d="M898.952,550.268h-5.279c-0.835,0-1.51-0.714-1.51-1.591c0-0.878,0.675-1.59,1.51-1.59h5.279
						c0.832,0,1.507,0.712,1.507,1.59C900.459,549.554,899.784,550.268,898.952,550.268z"/>
					<g>
						<path fill="#FCB017" d="M880.115,531.875L880.115,531.875c0.779,0,1.229,0.932,0.77,1.594l-6.123,8.85h-5.402l5.019-7.347
							C875.706,533.026,877.841,531.875,880.115,531.875z"/>
					</g>
					<path fill="#F3F3F3" d="M880.885,533.469h14.599c1.717,0,3.107,1.466,3.107,3.273v5.575h-23.829L880.885,533.469z"/>
				</g>
				<g id="car" clip-path="url(#SVGID_6_)">
					<path fill="#FFD169" d="M509.997,590.193H460.03v-33.754c0-2.064,1.882-3.738,4.205-3.738h41.557
						c2.322,0,4.205,1.674,4.205,3.738V590.193z"/>
					<path fill="#384B5F" d="M543.207,598.502h-85.53c-1.233,0-2.232-0.888-2.232-1.983v-4.339c0-1.097,1-1.986,2.232-1.986h85.53
						c1.233,0,2.23,0.89,2.23,1.986v4.339C545.437,597.614,544.439,598.502,543.207,598.502z"/>
					<path fill="#F2676B" d="M509.997,558.267h17.073c3.206,0,6.135,1.61,7.569,4.16l3.918,6.964
						c1.385,2.465,2.107,5.182,2.107,7.938v12.865h-30.667V558.267z"/>
					<path fill="#F3F3F3" d="M514.87,565.094v8.828h19.769l-4.456-8.884c-0.357-0.706-1.143-1.16-2.011-1.16h-11.937
						C515.48,563.878,514.87,564.422,514.87,565.094z"/>
					<g>
						<ellipse fill="#445A6C" cx="497.111" cy="597.175" rx="10.806" ry="9.608"/>
						<ellipse fill="#AEB3BA" cx="497.111" cy="597.175" rx="5.872" ry="5.221"/>
						<path fill="#384B5F" d="M499.544,597.175c0-1.195-1.088-2.164-2.434-2.164c-1.344,0-2.433,0.969-2.433,2.164
							c0,1.192,1.089,2.164,2.433,2.164C498.456,599.339,499.544,598.367,499.544,597.175z"/>
					</g>
					<g>
						<ellipse fill="#445A6C" cx="472.094" cy="597.175" rx="10.807" ry="9.608"/>
						<ellipse fill="#AEB3BA" cx="472.095" cy="597.175" rx="5.872" ry="5.221"/>
						<path fill="#384B5F" d="M474.527,597.175c0-1.195-1.089-2.164-2.433-2.164c-1.344,0-2.435,0.969-2.435,2.164
							c0,1.192,1.091,2.164,2.435,2.164C473.438,599.339,474.527,598.367,474.527,597.175z"/>
					</g>
					<rect x="514.87" y="573.922" fill="#EB4C57" width="19.769" height="16.271"/>
					<g>
						<ellipse fill="#445A6C" cx="528.424" cy="597.175" rx="10.807" ry="9.608"/>
						<ellipse fill="#AEB3BA" cx="528.424" cy="597.175" rx="5.872" ry="5.221"/>
						<path fill="#384B5F" d="M530.856,597.175c0-1.195-1.088-2.164-2.431-2.164c-1.345,0-2.434,0.969-2.434,2.164
							c0,1.192,1.089,2.164,2.434,2.164C529.768,599.339,530.856,598.367,530.856,597.175z"/>
					</g>
					<path fill="#AEB3BA" d="M523.476,580.153h-4.582c-0.707,0-1.277-0.509-1.277-1.136l0,0c0-0.627,0.57-1.135,1.277-1.135h4.582
						c0.705,0,1.279,0.508,1.279,1.135l0,0C524.755,579.645,524.181,580.153,523.476,580.153z"/>
				</g>
			</g>
			<g display="none" clip-path="url(#SVGID_4_)">
				<rect x="-0.575" y="-123.092" display="inline" fill="#B1DEF7" width="1151.187" height="813.978"/>
			</g>
		</g>
	</g>
</g>
</svg>
