<?xml version="1.0" standalone="no"?><!-- Generator: Gravit.io --><svg xmlns="http://www.w3.org/2000/svg" xmlns:xlink="http://www.w3.org/1999/xlink" style="isolation:isolate" viewBox="0 0 800 354" width="800" height="354"><defs><clipPath id="_clipPath_ANtlz1v5xdJ55fxeOg6Y4MHfuM9LejKJ"><rect width="800" height="354"/></clipPath></defs><g clip-path="url(#_clipPath_ANtlz1v5xdJ55fxeOg6Y4MHfuM9LejKJ)"><path d=" M 11.143 99.828 L 4.375 99.828 L 4.375 76.078 L 11.143 76.078 L 11.143 99.828 Z " fill="rgb(157,177,185)"/><path d=" M 16.25 96.875 L 10.958 99.828 L 10.958 76.078 L 16.25 73.125 L 16.25 96.875 Z " fill="rgb(134,156,160)"/><path d=" M 28.776 84.592 L 25 84.592 L 25 71.342 L 28.776 71.342 L 28.776 84.592 Z " fill="rgb(157,177,185)"/><path d=" M 31.625 82.943 L 28.673 84.591 L 28.673 71.341 L 31.625 69.693 L 31.625 82.943 Z " fill="rgb(134,156,160)"/><path d=" M 74.567 89.334 L 69.777 89.334 L 69.777 72.526 L 74.567 72.526 L 74.567 89.334 Z " fill="rgb(157,177,185)"/><path d=" M 78.181 87.243 L 74.436 89.334 L 74.436 72.526 L 78.181 70.435 L 78.181 87.243 Z " fill="rgb(134,156,160)"/><path d=" M 122.567 99.334 L 117.777 99.334 L 117.777 82.526 L 122.567 82.526 L 122.567 99.334 Z " fill="rgb(157,177,185)"/><path d=" M 126.181 97.243 L 122.436 99.334 L 122.436 82.526 L 126.181 80.435 L 126.181 97.243 Z " fill="rgb(134,156,160)"/><path d=" M 183.234 109.001 L 178.444 109.001 L 178.444 92.193 L 183.234 92.193 L 183.234 109.001 Z " fill="rgb(157,177,185)"/><path d=" M 186.848 106.91 L 183.103 109.001 L 183.103 92.193 L 186.848 90.102 L 186.848 106.91 Z " fill="rgb(134,156,160)"/><path d=" M 248.234 126.334 L 243.444 126.334 L 243.444 109.526 L 248.234 109.526 L 248.234 126.334 Z " fill="rgb(157,177,185)"/><path d=" M 251.848 124.243 L 248.103 126.334 L 248.103 109.526 L 251.848 107.435 L 251.848 124.243 Z " fill="rgb(134,156,160)"/><path d=" M 318.605 152.668 L 308.071 152.668 L 308.071 115.702 L 318.605 115.702 L 318.605 152.668 Z " fill="rgb(157,177,185)"/><path d=" M 326.554 148.069 L 318.318 152.668 L 318.318 115.702 L 326.554 111.103 L 326.554 148.069 Z " fill="rgb(134,156,160)"/><path d=" M 47.643 104.078 L 40.875 104.078 L 40.875 80.328 L 47.643 80.328 L 47.643 104.078 Z " fill="rgb(157,177,185)"/><path d=" M 52.75 101.125 L 47.458 104.078 L 47.458 80.328 L 52.75 77.375 L 52.75 101.125 Z " fill="rgb(134,156,160)"/><path d=" M 98.027 111.078 L 90.625 111.078 L 90.625 85.104 L 98.027 85.104 L 98.027 111.078 Z " fill="rgb(157,177,185)"/><path d=" M 103.612 107.849 L 97.825 111.078 L 97.825 85.105 L 103.612 81.875 L 103.612 107.849 Z " fill="rgb(134,156,160)"/><path d=" M 148.411 123.328 L 140.375 123.328 L 140.375 95.131 L 148.411 95.131 L 148.411 123.328 Z " fill="rgb(157,177,185)"/><path d=" M 154.474 119.822 L 148.191 123.328 L 148.191 95.131 L 154.474 91.625 L 154.474 119.822 Z " fill="rgb(134,156,160)"/><path d=" M 213.766 140.451 L 204.875 140.451 L 204.875 109.254 L 213.766 109.254 L 213.766 140.451 Z " fill="rgb(157,177,185)"/><path d=" M 220.474 136.572 L 213.523 140.451 L 213.523 109.254 L 220.474 105.375 L 220.474 136.572 Z " fill="rgb(134,156,160)"/><path d=" M 279.783 164.451 L 269.625 164.451 L 269.625 128.806 L 279.783 128.806 L 279.783 164.451 Z " fill="rgb(157,177,185)"/><path d=" M 287.447 160.019 L 279.505 164.451 L 279.505 128.807 L 287.447 124.375 L 287.447 160.019 Z " fill="rgb(134,156,160)"/><path d=" M 353.708 199.823 L 342.125 199.823 L 342.125 159.178 L 353.708 159.178 L 353.708 199.823 Z " fill="rgb(157,177,185)"/><path d=" M 362.447 194.769 L 353.39 199.823 L 353.39 159.179 L 362.447 154.125 L 362.447 194.769 Z " fill="rgb(134,156,160)"/><path d=" M 433.418 257.069 L 420.125 257.069 L 420.125 210.424 L 433.418 210.424 L 433.418 257.069 Z " fill="rgb(157,177,185)"/><path d=" M 443.447 251.269 L 433.053 257.07 L 433.053 210.424 L 443.447 204.625 L 443.447 251.269 Z " fill="rgb(134,156,160)"/><path d=" M 497.418 339.069 L 484.125 339.069 L 484.125 292.424 L 497.418 292.424 L 497.418 339.069 Z " fill="rgb(157,177,185)"/><path d=" M 507.447 333.269 L 497.053 339.07 L 497.053 292.424 L 507.447 286.625 L 507.447 333.269 Z " fill="rgb(134,156,160)"/><clipPath id="_clipPath_51Lw6EuTVC8leClWfVpJKdnNzItwTbzR"><path d=" M 0 0 L 800 0 L 800 354 L 0 354 L 0 0 Z " fill="rgb(255,255,255)"/></clipPath><g clip-path="url(#_clipPath_51Lw6EuTVC8leClWfVpJKdnNzItwTbzR)"><path d=" M 542.5 297 L 786.653 297 C 780.164 264.88 711.547 71.307 0 66.075 L 0 79.972 C 78.586 83.521 466.018 113.148 503.096 354 L 542.5 354 L 542.5 297 Z " fill="rgb(134,156,160)"/><path d=" M 503.096 354 L 792.321 354 L 792.321 295.496 C 792.321 295.496 780.962 64.79 0 60.039 L 0 73.763 C 66.128 76.274 470.754 101.939 503.096 354 Z " fill="rgb(173,190,196)"/><path d=" M 800 263.732 C 772.477 207.178 638.84 52.421 0 48.697 L 0 62.415 C 67.898 64.891 492.918 90.719 518.612 349.667 L 800 349.667 L 800 263.732 Z " fill="rgb(173,190,196)"/></g><linearGradient id="_lgradient_0" x1="18.6005859375%" y1="-24.67178545781572%" x2="92.284423825%" y2="113.24003409373071%"><stop offset="0%" stop-opacity="1" style="stop-color:rgb(94,96,98)"/><stop offset="10%" stop-opacity="1" style="stop-color:rgb(88,89,91)"/><stop offset="20%" stop-opacity="1" style="stop-color:rgb(83,83,84)"/><stop offset="30.000000000000004%" stop-opacity="1" style="stop-color:rgb(77,76,78)"/><stop offset="40%" stop-opacity="1" style="stop-color:rgb(71,70,71)"/><stop offset="50%" stop-opacity="1" style="stop-color:rgb(65,63,65)"/><stop offset="60%" stop-opacity="1" style="stop-color:rgb(59,57,58)"/><stop offset="70%" stop-opacity="1" style="stop-color:rgb(53,50,51)"/><stop offset="80%" stop-opacity="1" style="stop-color:rgb(47,44,45)"/><stop offset="89.99999999999999%" stop-opacity="1" style="stop-color:rgb(41,37,38)"/><stop offset="99.99999999999999%" stop-opacity="1" style="stop-color:rgb(35,31,31)"/></linearGradient><path d=" M 0 69.516 C 25.294 70.038 481.363 83.219 511.588 354 L 511.588 354 L 800 354 L 800 288.805 C 795.75 262.932 738.826 59.011 0 55.998 L 0 55.998 L 0 69.516 Z " fill="url(#_lgradient_0)"/><clipPath id="_clipPath_i41GZ0xtrToZpmEB5oYkStZKGRrhEjxY"><path d=" M 0 0 L 800 0 L 800 354 L 0 354 L 0 0 Z " fill="rgb(255,255,255)"/></clipPath><g clip-path="url(#_clipPath_i41GZ0xtrToZpmEB5oYkStZKGRrhEjxY)"><path d=" M 646.84 354 L 683.702 354 C 678.714 329.576 656.367 275.97 587.613 214.285 C 502.25 137.699 350.519 70.683 0 62.761 L 0 63.321 C 331.511 68.745 585.027 136.997 646.84 354 Z " fill="rgb(255,255,255)"/><path d=" M 699.938 354 L 732.804 354 C 727.815 329.576 707.76 272.092 635.714 214.285 C 544.763 141.295 358.77 65.865 0.001 62.453 L 0.001 62.973 C 347.93 66.431 629.607 135.625 699.938 354 Z " fill="rgb(255,255,255)"/><path d=" M 522.872 354 C 522.624 349.235 522.09 344.487 521.364 339.783 L 519.978 339.997 C 520.692 344.642 521.221 349.314 521.469 354 L 522.872 354 Z " fill="rgb(255,255,255)"/><path d=" M 512.038 304.011 C 514.341 310.356 516.34 316.813 517.991 323.36 L 516.652 323.697 C 515.013 317.197 513.028 310.783 510.74 304.48 L 512.038 304.011 Z " fill="rgb(255,255,255)"/><path d=" M 498.764 274.477 C 501.908 280.253 504.728 286.2 507.355 292.224 L 506.108 292.76 C 503.494 286.773 500.693 280.862 497.567 275.12 L 498.764 274.477 Z " fill="rgb(255,255,255)"/><path d=" M 481.299 246.793 C 485.067 251.966 488.638 257.281 491.979 262.739 L 490.84 263.438 C 487.518 258.01 483.965 252.722 480.217 247.576 L 481.299 246.793 Z " fill="rgb(255,255,255)"/><path d=" M 462.853 224.158 C 467.023 228.776 471.082 233.5 474.917 238.404 L 473.883 239.217 C 470.069 234.337 466.03 229.637 461.878 225.039 L 462.853 224.158 Z " fill="rgb(255,255,255)"/><path d=" M 440.881 202.338 C 445.361 206.402 449.763 210.552 454.022 214.849 L 453.102 215.756 C 448.861 211.479 444.478 207.346 440.018 203.298 L 440.881 202.338 Z " fill="rgb(255,255,255)"/><path d=" M 420.543 185.555 C 425.232 189.093 429.765 192.83 434.28 196.585 L 433.457 197.552 C 428.958 193.811 424.443 190.088 419.77 186.563 L 420.543 185.555 Z " fill="rgb(255,255,255)"/><path d=" M 397.853 169.525 C 402.595 172.68 407.353 175.823 411.945 179.197 L 411.215 180.21 C 406.638 176.847 401.897 173.714 397.168 170.569 L 397.853 169.525 Z " fill="rgb(255,255,255)"/><path d=" M 373.056 154.57 C 377.899 157.227 382.642 160.055 387.366 162.921 L 386.724 163.966 C 382.016 161.109 377.285 158.29 372.456 155.639 L 373.056 154.57 Z " fill="rgb(255,255,255)"/><path d=" M 350.641 142.835 C 355.462 145.151 360.207 147.617 364.925 150.138 L 364.357 151.199 C 359.652 148.686 354.919 146.226 350.109 143.914 L 350.641 142.835 Z " fill="rgb(255,255,255)"/><path d=" M 327.12 132.018 C 331.895 134.011 336.586 136.191 341.282 138.363 L 340.781 139.433 C 336.097 137.268 331.416 135.091 326.65 133.102 L 327.12 132.018 Z " fill="rgb(255,255,255)"/><path d=" M 302.682 122.138 C 307.389 123.824 311.983 125.802 316.639 127.621 L 316.199 128.695 C 311.552 126.879 306.968 124.906 302.27 123.222 L 302.682 122.138 Z " fill="rgb(255,255,255)"/><path d=" M 282.194 114.798 C 286.746 116.396 291.339 117.875 295.842 119.608 L 295.451 120.675 C 290.956 118.947 286.37 117.47 281.826 115.876 L 282.194 114.798 Z " fill="rgb(255,255,255)"/><path d=" M 262.843 108.512 L 276.132 112.747 L 275.781 113.807 L 262.514 109.579 L 262.843 108.512 Z " fill="rgb(255,255,255)"/><path d=" M 243.085 102.751 C 247.41 103.9 251.68 105.242 255.98 106.479 L 255.667 107.527 C 251.372 106.293 247.109 104.952 242.79 103.805 L 243.085 102.751 Z " fill="rgb(255,255,255)"/><path d=" M 227.299 98.538 C 231.468 99.59 235.607 100.76 239.762 101.865 L 239.479 102.899 C 235.329 101.795 231.196 100.627 227.032 99.576 L 227.299 98.538 Z " fill="rgb(255,255,255)"/><path d=" M 211.343 94.612 L 223.36 97.576 L 223.103 98.594 L 211.101 95.634 L 211.343 94.612 Z " fill="rgb(255,255,255)"/><path d=" M 195.287 91.012 L 206.851 93.614 L 206.62 94.616 L 195.069 92.017 L 195.287 91.012 Z " fill="rgb(255,255,255)"/><path d=" M 179.054 87.678 L 190.156 89.939 L 189.948 90.924 L 178.858 88.664 L 179.054 87.678 Z " fill="rgb(255,255,255)"/><path d=" M 163.231 84.7 L 173.86 86.648 L 173.673 87.616 L 163.054 85.669 L 163.231 84.7 Z " fill="rgb(255,255,255)"/><path d=" M 148.298 82.112 C 151.678 82.677 155.069 83.183 158.435 83.831 L 158.268 84.78 C 154.904 84.133 151.517 83.627 148.139 83.061 L 148.298 82.112 Z " fill="rgb(255,255,255)"/><path d=" M 133.1 79.676 C 136.323 80.122 139.524 80.704 142.738 81.213 L 142.587 82.142 C 139.377 81.635 136.178 81.053 132.958 80.606 L 133.1 79.676 Z " fill="rgb(255,255,255)"/><path d=" M 118.331 77.549 L 127.473 78.873 L 127.338 79.781 L 118.204 78.46 L 118.331 77.549 Z " fill="rgb(255,255,255)"/><path d=" M 105.173 75.825 L 113.818 76.918 L 113.697 77.806 L 105.059 76.715 L 105.173 75.825 Z " fill="rgb(255,255,255)"/><path d=" M 93.41 74.349 L 101.536 75.376 L 101.427 76.245 L 93.307 75.218 L 93.41 74.349 Z " fill="rgb(255,255,255)"/><path d=" M 81.623 73.067 L 89.246 73.896 L 89.148 74.743 L 81.531 73.915 L 81.623 73.067 Z " fill="rgb(255,255,255)"/><path d=" M 69.835 71.807 L 76.938 72.569 L 76.852 73.396 L 69.752 72.635 L 69.835 71.807 Z " fill="rgb(255,255,255)"/><path d=" M 58.028 70.735 L 64.622 71.339 L 64.544 72.146 L 57.954 71.541 L 58.028 70.735 Z " fill="rgb(255,255,255)"/><path d=" M 46.22 69.683 L 52.295 70.221 L 52.226 71.005 L 46.155 70.468 L 46.22 69.683 Z " fill="rgb(255,255,255)"/><path d=" M 34.397 68.805 L 39.957 69.223 L 39.897 69.987 L 34.34 69.569 L 34.397 68.805 Z " fill="rgb(255,255,255)"/><path d=" M 22.574 67.941 L 27.613 68.304 L 27.561 69.047 L 22.524 68.683 L 22.574 67.941 Z " fill="rgb(255,255,255)"/><path d=" M 10.739 67.251 L 15.26 67.519 L 15.216 68.239 L 10.697 67.972 L 10.739 67.251 Z " fill="rgb(255,255,255)"/><path d=" M 800 292.223 C 797.724 287.413 795.23 282.708 792.519 278.133 L 791.33 278.835 C 794.531 284.234 797.421 289.817 800 295.536 L 800 292.223 Z " fill="rgb(255,255,255)"/><path d=" M 764.611 241.349 C 771.039 248.184 777.035 255.428 782.565 263.012 L 781.465 263.807 C 775.97 256.274 770.011 249.073 763.618 242.276 L 764.611 241.349 Z " fill="rgb(255,255,255)"/><path d=" M 729.91 210.11 C 737.137 215.688 744.166 221.529 750.864 227.736 L 749.956 228.716 C 743.29 222.539 736.291 216.722 729.095 211.169 L 729.91 210.11 Z " fill="rgb(255,255,255)"/><path d=" M 695.501 186.639 C 703.085 191.252 710.527 196.101 717.79 201.208 L 717.033 202.283 C 709.796 197.193 702.377 192.361 694.816 187.76 L 695.501 186.639 Z " fill="rgb(255,255,255)"/><path d=" M 656.725 165.484 C 664.475 169.271 672.121 173.271 679.667 177.454 L 679.039 178.582 C 671.514 174.412 663.887 170.421 656.155 166.642 L 656.725 165.484 Z " fill="rgb(255,255,255)"/><path d=" M 622.441 150.017 C 630.18 153.22 637.849 156.595 645.447 160.123 L 644.911 161.275 C 637.33 157.753 629.676 154.385 621.953 151.188 L 622.441 150.017 Z " fill="rgb(255,255,255)"/><path d=" M 585.445 135.821 C 593.097 138.554 600.731 141.345 608.293 144.324 L 607.838 145.485 C 600.289 142.511 592.668 139.726 585.027 136.997 L 585.445 135.821 Z " fill="rgb(255,255,255)"/><path d=" M 546.18 123.005 C 553.727 125.262 561.23 127.664 568.718 130.108 L 568.332 131.272 C 560.854 128.831 553.363 126.432 545.826 124.178 L 546.18 123.005 Z " fill="rgb(255,255,255)"/><path d=" M 511.444 113.209 C 518.817 115.166 526.175 117.173 533.506 119.284 L 533.173 120.44 C 525.852 118.333 518.501 116.327 511.136 114.373 L 511.444 113.209 Z " fill="rgb(255,255,255)"/><path d=" M 475.585 104.389 C 482.774 106.047 489.95 107.761 497.109 109.549 L 496.823 110.696 C 489.672 108.91 482.501 107.197 475.318 105.54 L 475.585 104.389 Z " fill="rgb(255,255,255)"/><path d=" M 438.821 96.502 C 445.812 97.899 452.793 99.348 459.758 100.869 L 459.511 102.002 C 452.552 100.482 445.577 99.035 438.592 97.64 L 438.821 96.502 Z " fill="rgb(255,255,255)"/><path d=" M 408.32 90.731 C 415.093 91.944 421.858 93.196 428.614 94.502 L 428.397 95.62 C 421.647 94.315 414.886 93.063 408.12 91.851 L 408.32 90.731 Z " fill="rgb(255,255,255)"/><path d=" M 379.704 85.889 C 386.247 86.968 392.796 88.014 399.326 89.168 L 399.136 90.268 C 392.61 89.115 386.065 88.07 379.527 86.991 L 379.704 85.889 Z " fill="rgb(255,255,255)"/><path d=" M 350.675 81.502 L 369.614 84.319 L 369.446 85.4 L 350.519 82.584 L 350.675 81.502 Z " fill="rgb(255,255,255)"/><path d=" M 327.584 78.349 C 333.664 79.162 339.746 79.953 345.817 80.828 L 345.667 81.89 C 339.6 81.016 333.521 80.223 327.444 79.412 L 327.584 78.349 Z " fill="rgb(255,255,255)"/><path d=" M 304.323 75.461 C 310.169 76.136 316.007 76.886 321.845 77.618 L 321.712 78.661 C 315.876 77.928 310.042 77.178 304.198 76.504 L 304.323 75.461 Z " fill="rgb(255,255,255)"/><path d=" M 281 72.816 L 297.802 74.699 L 297.685 75.721 L 280.889 73.837 L 281 72.816 Z " fill="rgb(255,255,255)"/><path d=" M 257.48 70.429 L 273.561 72.051 L 273.456 73.051 L 257.382 71.43 L 257.48 70.429 Z " fill="rgb(255,255,255)"/><path d=" M 234.609 68.315 L 249.962 69.708 L 249.87 70.687 L 234.523 69.296 L 234.609 68.315 Z " fill="rgb(255,255,255)"/><path d=" M 213.06 66.543 L 227.681 67.74 L 227.599 68.699 L 212.984 67.502 L 213.06 66.543 Z " fill="rgb(255,255,255)"/><path d=" M 191.162 64.921 L 205.048 65.934 L 204.977 66.871 L 191.095 65.859 L 191.162 64.921 Z " fill="rgb(255,255,255)"/><path d=" M 169.922 63.512 L 183.071 64.365 L 183.009 65.282 L 169.864 64.429 L 169.922 63.512 Z " fill="rgb(255,255,255)"/><path d=" M 151.023 62.397 L 163.433 63.125 L 163.378 64.021 L 150.973 63.293 L 151.023 62.397 Z " fill="rgb(255,255,255)"/><path d=" M 134.132 61.51 L 145.801 62.124 L 145.753 62.999 L 134.088 62.384 L 134.132 61.51 Z " fill="rgb(255,255,255)"/><path d=" M 117.237 60.719 L 128.164 61.23 L 128.122 62.081 L 117.199 61.571 L 117.237 60.719 Z " fill="rgb(255,255,255)"/><path d=" M 100.337 60.018 L 110.521 60.436 L 110.485 61.266 L 100.304 60.849 L 100.337 60.018 Z " fill="rgb(255,255,255)"/><path d=" M 83.435 59.405 L 92.875 59.738 L 92.845 60.548 L 83.407 60.215 L 83.435 59.405 Z " fill="rgb(255,255,255)"/><path d=" M 66.529 58.878 L 75.225 59.136 L 75.2 59.924 L 66.506 59.666 L 66.529 58.878 Z " fill="rgb(255,255,255)"/><path d=" M 49.622 58.433 L 57.574 58.625 L 57.553 59.39 L 49.603 59.199 L 49.622 58.433 Z " fill="rgb(255,255,255)"/><path d=" M 32.712 58.066 L 39.919 58.209 L 39.902 58.952 L 32.697 58.809 L 32.712 58.066 Z " fill="rgb(255,255,255)"/><path d=" M 15.801 57.776 L 22.262 57.88 L 22.25 58.602 L 15.79 58.498 L 15.801 57.776 Z " fill="rgb(255,255,255)"/><path d=" M 0 57.574 L 0 58.273 L 4.596 58.336 L 4.605 57.636 L 0 57.574 Z " fill="rgb(255,255,255)"/></g></g></svg>